<svg width="26" height="26" viewBox="0 0 26 26" fill="none" xmlns="http://www.w3.org/2000/svg">
<path d="M19.25 25.5V23H23V19.25H25.5V23.625C25.5 24.1125 25.3 24.55 24.925 24.925C24.55 25.3 24.1125 25.5 23.625 25.5H19.25ZM6.75 25.5H2.375C1.8875 25.5 1.45 25.3 1.075 24.925C0.7 24.55 0.5 24.1125 0.5 23.625V19.25H3V23H6.75V25.5ZM19.25 0.5H23.625C24.1125 0.5 24.55 0.7 24.925 1.075C25.3 1.45 25.5 1.8875 25.5 2.375V6.75H23V3H19.25V0.5ZM6.75 0.5V3H3V6.75H0.5V2.375C0.5 1.8875 0.7 1.45 1.075 1.075C1.45 0.7 1.8875 0.5 2.375 0.5H6.75ZM14.25 19.5625L19.25 16.6875V10.95L14.25 13.825V19.5625ZM13 11.65L18 8.7875L13 5.85L8 8.7875L13 11.65ZM6.75 16.6875L11.75 19.5625V13.825L6.75 10.95V16.6875ZM20.7875 7.4875C21.4125 7.8875 21.75 8.425 21.75 9.1375V17.0375C21.75 17.75 21.4125 18.2875 20.7875 18.6875L13.9375 22.6625C13.3125 23.0625 12.6875 23.0625 12.0625 22.6625L5.2125 18.6875C4.5875 18.2875 4.25 17.75 4.25 17.0375V9.1375C4.25 8.425 4.5875 7.8875 5.2125 7.4875L12.0625 3.5125C12.375 3.35 12.6875 3.275 13 3.275C13.3125 3.275 13.625 3.35 13.9375 3.5125L20.7875 7.4875Z" fill="#4C4C4C"/>
</svg>
