<svg width="28" height="28" viewBox="0 0 28 28" fill="none" xmlns="http://www.w3.org/2000/svg">
<path d="M24 12.75H27.75V15.25H24V12.75ZM0.25 12.75H4V15.25H0.25V12.75ZM15.25 0.25V4H12.75V0.25H15.25ZM5.15 3.375L7.8125 6.05L6.0375 7.8125L3.375 5.1625L5.15 3.375ZM20.1875 6.0375L22.8375 3.375L24.625 5.1625L21.9625 7.8125L20.1875 6.0375ZM14 6.5C15.9891 6.5 17.8968 7.29018 19.3033 8.6967C20.7098 10.1032 21.5 12.0109 21.5 14C21.5 16.775 19.9875 19.2 17.75 20.5V22.75C17.75 23.0815 17.6183 23.3995 17.3839 23.6339C17.1495 23.8683 16.8315 24 16.5 24H11.5C11.1685 24 10.8505 23.8683 10.6161 23.6339C10.3817 23.3995 10.25 23.0815 10.25 22.75V20.5C8.0125 19.2 6.5 16.775 6.5 14C6.5 12.0109 7.29018 10.1032 8.6967 8.6967C10.1032 7.29018 12.0109 6.5 14 6.5ZM16.5 25.25V26.5C16.5 26.8315 16.3683 27.1495 16.1339 27.3839C15.8995 27.6183 15.5815 27.75 15.25 27.75H12.75C12.4185 27.75 12.1005 27.6183 11.8661 27.3839C11.6317 27.1495 11.5 26.8315 11.5 26.5V25.25H16.5ZM12.75 21.5H15.25V18.8375C17.4125 18.2875 19 16.325 19 14C19 12.6739 18.4732 11.4021 17.5355 10.4645C16.5979 9.52678 15.3261 9 14 9C12.6739 9 11.4021 9.52678 10.4645 10.4645C9.52678 11.4021 9 12.6739 9 14C9 16.325 10.5875 18.2875 12.75 18.8375V21.5Z" fill="#4C4C4C"/>
</svg>
